<svg xmlns="http://www.w3.org/2000/svg" id="Layer_1" enable-background="new 0 0 64 64" viewBox="0 0 64 64"><path fill="#e5e8ec" d="M61,61.33H3c-1.66,0-3-1.34-3-3V14.4h64v43.93C64,59.99,62.66,61.33,61,61.33z"/><rect width="53.85" height="39.49" x="5.07" y="18.12" fill="#fff"/><path fill="#f2705b" d="M64,4.77v9.63H0V4.77c0-1.16,0.94-2.1,2.1-2.1H61.9C63.06,2.67,64,3.61,64,4.77z"/><circle cx="7" cy="8.53" r="2" fill="#fff"/><circle cx="13.55" cy="8.53" r="2" fill="#fff"/><circle cx="20.09" cy="8.53" r="2" fill="#fff"/><path fill="#fff" d="M57.69,9.84H29.93c-0.72,0-1.31-0.59-1.31-1.31l0,0c0-0.72,0.59-1.31,1.31-1.31h27.76
					c0.72,0,1.31,0.59,1.31,1.31l0,0C59,9.26,58.41,9.84,57.69,9.84z"/><g><polygon fill="#4cdbc4" points="32.02 37.88 32 37.89 32 37.87"/><polygon fill="#4cdbc4" points="32.01 37.87 32 37.88 32 37.87"/></g><g><rect width="40.69" height="8.04" x="11.66" y="21.28" fill="#eeb04b"/><rect width="40.69" height="8.04" x="11.66" y="46.41" fill="#ff7058"/><rect width="18.25" height="8.04" x="11.66" y="33.85" fill="#4cdbc4"/><rect width="18.25" height="8.04" x="34.1" y="33.85" fill="#4cdbc4"/></g></svg>