<svg xmlns="http://www.w3.org/2000/svg" xmlns:svgjs="http://svgjs.com/svgjs" xmlns:xlink="http://www.w3.org/1999/xlink" id="SvgjsSvg1001" width="288" height="288" version="1.1"><g id="SvgjsG1008" transform="matrix(0.9167,0,0,0.9167,11.995200128237173,11.995200535578732)"><svg width="288" height="288" fill="none" viewBox="0 0 337 337"><rect width="111" height="111" x="113" y="113" fill="#fff" class="colorfff svgShape" rx="55.5"/><path fill="#2962ff" fill-rule="evenodd" d="M23.155 112.598c-30.873 30.874-30.873 80.93 0 111.804l89.443 89.443c30.874 30.873 80.93 30.873 111.804 0l89.443-89.443c30.873-30.874 30.873-80.93 0-111.804l-89.443-89.443c-30.874-30.873-80.93-30.873-111.804 0l-89.443 89.443zm184.476 95.033c21.612-21.611 21.612-56.651 0-78.262-21.611-21.612-56.651-21.612-78.262 0-21.612 21.611-21.612 56.651 0 78.262 21.611 21.612 56.651 21.612 78.262 0z" class="color2962FF svgShape" clip-rule="evenodd"/></svg></g></svg>