<svg xmlns="http://www.w3.org/2000/svg" width="500" height="500" fill="none" viewBox="0 0 500 500"><g clip-path="url(#clip0)"><rect width="500" height="500" fill="#000" rx="10"/><circle cx="249" cy="250" r="230.5" stroke="url(#paint0_linear)" stroke-width="17"/><path fill="url(#paint1_linear)" d="M332.95 276.95C332.95 325.85 335.65 350.3 341.05 350.3C346.45 350.3 353.65 344.15 362.65 331.85C371.95 319.25 380.95 303.2 389.65 283.7C398.65 263.9 404.05 254 405.85 254C407.95 254 409 255.2 409 257.6C409 266 403.9 281.3 393.7 303.5C371.8 350 352.15 373.25 334.75 373.25C328.15 373.25 322.15 372.5 316.75 371C311.35 369.2 308.05 367.55 306.85 366.05C303.85 362.45 302.35 349.25 302.35 326.45C302.35 272.45 304.15 228.65 307.75 195.05C290.35 212.15 274.45 231.65 260.05 253.55C266.35 277.55 269.5 298.4 269.5 316.1C269.5 333.5 266.05 347 259.15 356.6C252.55 366.2 244.15 371 233.95 371C221.65 371 215.5 359.15 215.5 335.45C215.5 319.25 221.95 297.8 234.85 271.1C228.85 250.1 220.15 229.55 208.75 209.45C203.95 236.75 196.6 264.65 186.7 293.15C176.8 321.65 166.6 342.95 156.1 357.05C145.6 370.85 133.15 377.75 118.75 377.75C108.25 377.75 103 373.7 103 365.6C103 359 105.25 354.35 109.75 351.65C114.25 348.95 119.5 347 125.5 345.8C131.8 344.3 135.85 342.65 137.65 340.85C149.35 328.55 160.3 307.55 170.5 277.85C181 248.15 188.65 217.7 193.45 186.5C180.55 169.7 174.1 157.25 174.1 149.15C174.1 140.75 176.2 133.4 180.4 127.1C184.9 120.8 192.1 117.65 202 117.65C205 117.65 207.55 121.55 209.65 129.35C211.75 136.85 212.8 144.8 212.8 153.2C231.1 179.9 245.05 207.5 254.65 236C271.45 208.4 290.65 182.9 312.25 159.5C321.55 102.8 332.35 74.45 344.65 74.45C348.85 74.45 353.2 77.6 357.7 83.9C362.5 90.2 364.9 96.65 364.9 103.25C364.9 123.65 356.05 144.35 338.35 165.35C334.75 190.85 332.95 228.05 332.95 276.95ZM239.35 290.45C232.15 306.35 228.55 320.6 228.55 333.2C228.55 345.5 230.05 351.65 233.05 351.65C236.05 351.65 238.3 348.05 239.8 340.85C241.3 333.35 242.05 325.55 242.05 317.45C242.05 309.35 241.15 300.35 239.35 290.45Z"/></g><defs><linearGradient id="paint0_linear" x1="249" x2="249" y1="11" y2="489" gradientUnits="userSpaceOnUse"><stop stop-color="#2AF598"/><stop offset="1" stop-color="#009EFD"/></linearGradient><linearGradient id="paint1_linear" x1="30.2" x2="433.335" y1="386.726" y2="159.328" gradientUnits="userSpaceOnUse"><stop stop-color="#D4FC79"/><stop offset="1" stop-color="#21D4FD"/></linearGradient><clipPath id="clip0"><rect width="500" height="500" fill="#fff" rx="10"/></clipPath></defs></svg>